<svg width="519" height="72" viewBox="0 0 519 72" fill="none" xmlns="http://www.w3.org/2000/svg">
<path d="M0 72H221V0H0V72Z" fill="#A61212"/>
<path d="M40.9844 46.5156V52H23.8047V46.5156H40.9844ZM26.0781 17.875V52H19.0469V17.875H26.0781Z" fill="#EBEBEB"/>
<path d="M52.4922 17.875V52H45.4844V17.875H52.4922Z" fill="#EBEBEB"/>
<path d="M78.8594 40.6797H85.8672C85.7266 42.9766 85.0938 45.0156 83.9688 46.7969C82.8594 48.5781 81.3047 49.9688 79.3047 50.9688C77.3203 51.9688 74.9297 52.4688 72.1328 52.4688C69.9453 52.4688 67.9844 52.0938 66.25 51.3438C64.5156 50.5781 63.0312 49.4844 61.7969 48.0625C60.5781 46.6406 59.6484 44.9219 59.0078 42.9062C58.3672 40.8906 58.0469 38.6328 58.0469 36.1328V33.7656C58.0469 31.2656 58.375 29.0078 59.0312 26.9922C59.7031 24.9609 60.6562 23.2344 61.8906 21.8125C63.1406 20.3906 64.6328 19.2969 66.3672 18.5312C68.1016 17.7656 70.0391 17.3828 72.1797 17.3828C75.0234 17.3828 77.4219 17.8984 79.375 18.9297C81.3438 19.9609 82.8672 21.3828 83.9453 23.1953C85.0391 25.0078 85.6953 27.0703 85.9141 29.3828H78.8828C78.8047 28.0078 78.5312 26.8438 78.0625 25.8906C77.5938 24.9219 76.8828 24.1953 75.9297 23.7109C74.9922 23.2109 73.7422 22.9609 72.1797 22.9609C71.0078 22.9609 69.9844 23.1797 69.1094 23.6172C68.2344 24.0547 67.5 24.7188 66.9062 25.6094C66.3125 26.5 65.8672 27.625 65.5703 28.9844C65.2891 30.3281 65.1484 31.9062 65.1484 33.7188V36.1328C65.1484 37.8984 65.2812 39.4531 65.5469 40.7969C65.8125 42.125 66.2188 43.25 66.7656 44.1719C67.3281 45.0781 68.0469 45.7656 68.9219 46.2344C69.8125 46.6875 70.8828 46.9141 72.1328 46.9141C73.6016 46.9141 74.8125 46.6797 75.7656 46.2109C76.7188 45.7422 77.4453 45.0469 77.9453 44.125C78.4609 43.2031 78.7656 42.0547 78.8594 40.6797Z" fill="#EBEBEB"/>
<path d="M113.383 46.5156V52H95.2188V46.5156H113.383ZM97.5156 17.875V52H90.4844V17.875H97.5156ZM111.016 31.7734V37.1172H95.2188V31.7734H111.016ZM113.359 17.875V23.3828H95.2188V17.875H113.359Z" fill="#EBEBEB"/>
<path d="M145.258 17.875V52H138.227L124.516 29.125V52H117.484V17.875H124.516L138.25 40.7734V17.875H145.258Z" fill="#EBEBEB"/>
<path d="M169.141 43.0703C169.141 42.4609 169.047 41.9141 168.859 41.4297C168.688 40.9297 168.359 40.4766 167.875 40.0703C167.391 39.6484 166.711 39.2344 165.836 38.8281C164.961 38.4219 163.828 38 162.438 37.5625C160.891 37.0625 159.422 36.5 158.031 35.875C156.656 35.25 155.438 34.5234 154.375 33.6953C153.328 32.8516 152.5 31.875 151.891 30.7656C151.297 29.6562 151 28.3672 151 26.8984C151 25.4766 151.312 24.1875 151.938 23.0312C152.562 21.8594 153.438 20.8594 154.562 20.0312C155.688 19.1875 157.016 18.5391 158.547 18.0859C160.094 17.6328 161.789 17.4062 163.633 17.4062C166.148 17.4062 168.344 17.8594 170.219 18.7656C172.094 19.6719 173.547 20.9141 174.578 22.4922C175.625 24.0703 176.148 25.875 176.148 27.9062H169.164C169.164 26.9062 168.953 26.0312 168.531 25.2812C168.125 24.5156 167.5 23.9141 166.656 23.4766C165.828 23.0391 164.781 22.8203 163.516 22.8203C162.297 22.8203 161.281 23.0078 160.469 23.3828C159.656 23.7422 159.047 24.2344 158.641 24.8594C158.234 25.4688 158.031 26.1562 158.031 26.9219C158.031 27.5 158.172 28.0234 158.453 28.4922C158.75 28.9609 159.188 29.3984 159.766 29.8047C160.344 30.2109 161.055 30.5938 161.898 30.9531C162.742 31.3125 163.719 31.6641 164.828 32.0078C166.688 32.5703 168.32 33.2031 169.727 33.9062C171.148 34.6094 172.336 35.3984 173.289 36.2734C174.242 37.1484 174.961 38.1406 175.445 39.25C175.93 40.3594 176.172 41.6172 176.172 43.0234C176.172 44.5078 175.883 45.8359 175.305 47.0078C174.727 48.1797 173.891 49.1719 172.797 49.9844C171.703 50.7969 170.398 51.4141 168.883 51.8359C167.367 52.2578 165.672 52.4688 163.797 52.4688C162.109 52.4688 160.445 52.25 158.805 51.8125C157.164 51.3594 155.672 50.6797 154.328 49.7734C153 48.8672 151.938 47.7109 151.141 46.3047C150.344 44.8984 149.945 43.2344 149.945 41.3125H157C157 42.375 157.164 43.2734 157.492 44.0078C157.82 44.7422 158.281 45.3359 158.875 45.7891C159.484 46.2422 160.203 46.5703 161.031 46.7734C161.875 46.9766 162.797 47.0781 163.797 47.0781C165.016 47.0781 166.016 46.9062 166.797 46.5625C167.594 46.2188 168.18 45.7422 168.555 45.1328C168.945 44.5234 169.141 43.8359 169.141 43.0703Z" fill="#EBEBEB"/>
<path d="M203.852 46.5156V52H185.688V46.5156H203.852ZM187.984 17.875V52H180.953V17.875H187.984ZM201.484 31.7734V37.1172H185.688V31.7734H201.484ZM203.828 17.875V23.3828H185.688V17.875H203.828Z" fill="#EBEBEB"/>
<path d="M255.305 17.875V52H248.297V17.875H255.305ZM265.805 17.875V23.3828H237.961V17.875H265.805Z" fill="#EBEBEB"/>
<path d="M297.188 34.1406V35.7578C297.188 38.3516 296.836 40.6797 296.133 42.7422C295.43 44.8047 294.438 46.5625 293.156 48.0156C291.875 49.4531 290.344 50.5547 288.562 51.3203C286.797 52.0859 284.836 52.4688 282.68 52.4688C280.539 52.4688 278.578 52.0859 276.797 51.3203C275.031 50.5547 273.5 49.4531 272.203 48.0156C270.906 46.5625 269.898 44.8047 269.18 42.7422C268.477 40.6797 268.125 38.3516 268.125 35.7578V34.1406C268.125 31.5312 268.477 29.2031 269.18 27.1562C269.883 25.0938 270.875 23.3359 272.156 21.8828C273.453 20.4297 274.984 19.3203 276.75 18.5547C278.531 17.7891 280.492 17.4062 282.633 17.4062C284.789 17.4062 286.75 17.7891 288.516 18.5547C290.297 19.3203 291.828 20.4297 293.109 21.8828C294.406 23.3359 295.406 25.0938 296.109 27.1562C296.828 29.2031 297.188 31.5312 297.188 34.1406ZM290.086 35.7578V34.0938C290.086 32.2812 289.922 30.6875 289.594 29.3125C289.266 27.9375 288.781 26.7812 288.141 25.8438C287.5 24.9062 286.719 24.2031 285.797 23.7344C284.875 23.25 283.82 23.0078 282.633 23.0078C281.445 23.0078 280.391 23.25 279.469 23.7344C278.562 24.2031 277.789 24.9062 277.148 25.8438C276.523 26.7812 276.047 27.9375 275.719 29.3125C275.391 30.6875 275.227 32.2812 275.227 34.0938V35.7578C275.227 37.5547 275.391 39.1484 275.719 40.5391C276.047 41.9141 276.531 43.0781 277.172 44.0312C277.812 44.9688 278.594 45.6797 279.516 46.1641C280.438 46.6484 281.492 46.8906 282.68 46.8906C283.867 46.8906 284.922 46.6484 285.844 46.1641C286.766 45.6797 287.539 44.9688 288.164 44.0312C288.789 43.0781 289.266 41.9141 289.594 40.5391C289.922 39.1484 290.086 37.5547 290.086 35.7578Z" fill="#EBEBEB"/>
<path d="M331.969 43.0703C331.969 42.4609 331.875 41.9141 331.688 41.4297C331.516 40.9297 331.188 40.4766 330.703 40.0703C330.219 39.6484 329.539 39.2344 328.664 38.8281C327.789 38.4219 326.656 38 325.266 37.5625C323.719 37.0625 322.25 36.5 320.859 35.875C319.484 35.25 318.266 34.5234 317.203 33.6953C316.156 32.8516 315.328 31.875 314.719 30.7656C314.125 29.6562 313.828 28.3672 313.828 26.8984C313.828 25.4766 314.141 24.1875 314.766 23.0312C315.391 21.8594 316.266 20.8594 317.391 20.0312C318.516 19.1875 319.844 18.5391 321.375 18.0859C322.922 17.6328 324.617 17.4062 326.461 17.4062C328.977 17.4062 331.172 17.8594 333.047 18.7656C334.922 19.6719 336.375 20.9141 337.406 22.4922C338.453 24.0703 338.977 25.875 338.977 27.9062H331.992C331.992 26.9062 331.781 26.0312 331.359 25.2812C330.953 24.5156 330.328 23.9141 329.484 23.4766C328.656 23.0391 327.609 22.8203 326.344 22.8203C325.125 22.8203 324.109 23.0078 323.297 23.3828C322.484 23.7422 321.875 24.2344 321.469 24.8594C321.062 25.4688 320.859 26.1562 320.859 26.9219C320.859 27.5 321 28.0234 321.281 28.4922C321.578 28.9609 322.016 29.3984 322.594 29.8047C323.172 30.2109 323.883 30.5938 324.727 30.9531C325.57 31.3125 326.547 31.6641 327.656 32.0078C329.516 32.5703 331.148 33.2031 332.555 33.9062C333.977 34.6094 335.164 35.3984 336.117 36.2734C337.07 37.1484 337.789 38.1406 338.273 39.25C338.758 40.3594 339 41.6172 339 43.0234C339 44.5078 338.711 45.8359 338.133 47.0078C337.555 48.1797 336.719 49.1719 335.625 49.9844C334.531 50.7969 333.227 51.4141 331.711 51.8359C330.195 52.2578 328.5 52.4688 326.625 52.4688C324.938 52.4688 323.273 52.25 321.633 51.8125C319.992 51.3594 318.5 50.6797 317.156 49.7734C315.828 48.8672 314.766 47.7109 313.969 46.3047C313.172 44.8984 312.773 43.2344 312.773 41.3125H319.828C319.828 42.375 319.992 43.2734 320.32 44.0078C320.648 44.7422 321.109 45.3359 321.703 45.7891C322.312 46.2422 323.031 46.5703 323.859 46.7734C324.703 46.9766 325.625 47.0781 326.625 47.0781C327.844 47.0781 328.844 46.9062 329.625 46.5625C330.422 46.2188 331.008 45.7422 331.383 45.1328C331.773 44.5234 331.969 43.8359 331.969 43.0703Z" fill="#EBEBEB"/>
<path d="M362.625 17.875H369.633V40.4219C369.633 43.0469 369.07 45.2578 367.945 47.0547C366.836 48.8516 365.297 50.2031 363.328 51.1094C361.375 52.0156 359.125 52.4688 356.578 52.4688C354.031 52.4688 351.766 52.0156 349.781 51.1094C347.812 50.2031 346.266 48.8516 345.141 47.0547C344.031 45.2578 343.477 43.0469 343.477 40.4219V17.875H350.508V40.4219C350.508 41.9531 350.75 43.2031 351.234 44.1719C351.719 45.1406 352.414 45.8516 353.32 46.3047C354.242 46.7578 355.328 46.9844 356.578 46.9844C357.859 46.9844 358.945 46.7578 359.836 46.3047C360.742 45.8516 361.43 45.1406 361.898 44.1719C362.383 43.2031 362.625 41.9531 362.625 40.4219V17.875Z" fill="#EBEBEB"/>
<path d="M395.203 40.6797H402.211C402.07 42.9766 401.438 45.0156 400.312 46.7969C399.203 48.5781 397.648 49.9688 395.648 50.9688C393.664 51.9688 391.273 52.4688 388.477 52.4688C386.289 52.4688 384.328 52.0938 382.594 51.3438C380.859 50.5781 379.375 49.4844 378.141 48.0625C376.922 46.6406 375.992 44.9219 375.352 42.9062C374.711 40.8906 374.391 38.6328 374.391 36.1328V33.7656C374.391 31.2656 374.719 29.0078 375.375 26.9922C376.047 24.9609 377 23.2344 378.234 21.8125C379.484 20.3906 380.977 19.2969 382.711 18.5312C384.445 17.7656 386.383 17.3828 388.523 17.3828C391.367 17.3828 393.766 17.8984 395.719 18.9297C397.688 19.9609 399.211 21.3828 400.289 23.1953C401.383 25.0078 402.039 27.0703 402.258 29.3828H395.227C395.148 28.0078 394.875 26.8438 394.406 25.8906C393.938 24.9219 393.227 24.1953 392.273 23.7109C391.336 23.2109 390.086 22.9609 388.523 22.9609C387.352 22.9609 386.328 23.1797 385.453 23.6172C384.578 24.0547 383.844 24.7188 383.25 25.6094C382.656 26.5 382.211 27.625 381.914 28.9844C381.633 30.3281 381.492 31.9062 381.492 33.7188V36.1328C381.492 37.8984 381.625 39.4531 381.891 40.7969C382.156 42.125 382.562 43.25 383.109 44.1719C383.672 45.0781 384.391 45.7656 385.266 46.2344C386.156 46.6875 387.227 46.9141 388.477 46.9141C389.945 46.9141 391.156 46.6797 392.109 46.2109C393.062 45.7422 393.789 45.0469 394.289 44.125C394.805 43.2031 395.109 42.0547 395.203 40.6797Z" fill="#EBEBEB"/>
<path d="M426.609 40.6797H433.617C433.477 42.9766 432.844 45.0156 431.719 46.7969C430.609 48.5781 429.055 49.9688 427.055 50.9688C425.07 51.9688 422.68 52.4688 419.883 52.4688C417.695 52.4688 415.734 52.0938 414 51.3438C412.266 50.5781 410.781 49.4844 409.547 48.0625C408.328 46.6406 407.398 44.9219 406.758 42.9062C406.117 40.8906 405.797 38.6328 405.797 36.1328V33.7656C405.797 31.2656 406.125 29.0078 406.781 26.9922C407.453 24.9609 408.406 23.2344 409.641 21.8125C410.891 20.3906 412.383 19.2969 414.117 18.5312C415.852 17.7656 417.789 17.3828 419.93 17.3828C422.773 17.3828 425.172 17.8984 427.125 18.9297C429.094 19.9609 430.617 21.3828 431.695 23.1953C432.789 25.0078 433.445 27.0703 433.664 29.3828H426.633C426.555 28.0078 426.281 26.8438 425.812 25.8906C425.344 24.9219 424.633 24.1953 423.68 23.7109C422.742 23.2109 421.492 22.9609 419.93 22.9609C418.758 22.9609 417.734 23.1797 416.859 23.6172C415.984 24.0547 415.25 24.7188 414.656 25.6094C414.062 26.5 413.617 27.625 413.32 28.9844C413.039 30.3281 412.898 31.9062 412.898 33.7188V36.1328C412.898 37.8984 413.031 39.4531 413.297 40.7969C413.562 42.125 413.969 43.25 414.516 44.1719C415.078 45.0781 415.797 45.7656 416.672 46.2344C417.562 46.6875 418.633 46.9141 419.883 46.9141C421.352 46.9141 422.562 46.6797 423.516 46.2109C424.469 45.7422 425.195 45.0469 425.695 44.125C426.211 43.2031 426.516 42.0547 426.609 40.6797Z" fill="#EBEBEB"/>
<path d="M461.133 46.5156V52H442.969V46.5156H461.133ZM445.266 17.875V52H438.234V17.875H445.266ZM458.766 31.7734V37.1172H442.969V31.7734H458.766ZM461.109 17.875V23.3828H442.969V17.875H461.109Z" fill="#EBEBEB"/>
<path d="M488.133 46.5156V52H469.969V46.5156H488.133ZM472.266 17.875V52H465.234V17.875H472.266ZM485.766 31.7734V37.1172H469.969V31.7734H485.766ZM488.109 17.875V23.3828H469.969V17.875H488.109Z" fill="#EBEBEB"/>
<path d="M502.711 52H495.281L495.328 46.5156H502.711C504.555 46.5156 506.109 46.1016 507.375 45.2734C508.641 44.4297 509.594 43.2031 510.234 41.5938C510.891 39.9844 511.219 38.0391 511.219 35.7578V34.0938C511.219 32.3438 511.031 30.8047 510.656 29.4766C510.297 28.1484 509.758 27.0312 509.039 26.125C508.32 25.2188 507.438 24.5391 506.391 24.0859C505.344 23.6172 504.141 23.3828 502.781 23.3828H495.141V17.875H502.781C505.062 17.875 507.148 18.2656 509.039 19.0469C510.945 19.8125 512.594 20.9141 513.984 22.3516C515.375 23.7891 516.445 25.5078 517.195 27.5078C517.961 29.4922 518.344 31.7031 518.344 34.1406V35.7578C518.344 38.1797 517.961 40.3906 517.195 42.3906C516.445 44.3906 515.375 46.1094 513.984 47.5469C512.609 48.9688 510.961 50.0703 509.039 50.8516C507.133 51.6172 505.023 52 502.711 52ZM499.266 17.875V52H492.234V17.875H499.266Z" fill="#EBEBEB"/>
</svg>
